<?xml version="1.0" encoding="utf-8"?>
<!-- Generator: Adobe Illustrator 28.0.0, SVG Export Plug-In . SVG Version: 6.00 Build 0)  -->
<svg version="1.1" id="레이어_1" xmlns="http://www.w3.org/2000/svg" xmlns:xlink="http://www.w3.org/1999/xlink" x="0px"
	 y="0px" viewBox="0 0 91.3 109.9" style="enable-background:new 0 0 91.3 109.9;" xml:space="preserve">
<style type="text/css">
	.st0{fill:url(#SVGID_1_);}
	.st1{fill:none;stroke:#FFFFFF;stroke-width:4;stroke-linecap:round;stroke-linejoin:round;}
	.st2{fill:none;stroke:#FFFFFF;stroke-width:4;stroke-linejoin:round;}
</style>
<g id="star-badge--ribbon-reward-like-social-rating-media">
	<linearGradient id="SVGID_1_" gradientUnits="userSpaceOnUse" x1="45.6351" y1="20.5141" x2="45.6351" y2="74.7655">
		<stop  offset="0.4" style="stop-color:#FFFFFF;stop-opacity:0"/>
		<stop  offset="1" style="stop-color:#CCCCCC"/>
	</linearGradient>
	<path class="st0" d="M45.6,20.5c-15,0-27.1,12.1-27.1,27.1c0,15,12.1,27.1,27.1,27.1s27.1-12.1,27.1-27.1
		C72.8,32.7,60.6,20.5,45.6,20.5z M60.8,44c-0.1,0.2-0.2,0.4-0.4,0.6l-6.1,5.8c-0.1,0.2-0.1,0.4-0.1,0.6s0,0.4,0.1,0.6l1.2,8.3
		c0.1,0.2,0,0.5-0.1,0.7c-0.1,0.2-0.2,0.4-0.4,0.6s-0.4,0.2-0.7,0.2c-0.2,0-0.5,0-0.7-0.2l-7.4-3.9c-0.2-0.1-0.4-0.1-0.6-0.1
		c-0.2,0-0.4,0-0.6,0.1l-7.4,3.9c-0.2,0.1-0.5,0.2-0.7,0.2c-0.2,0-0.5-0.1-0.7-0.2c-0.2-0.1-0.3-0.3-0.4-0.6
		c-0.1-0.2-0.1-0.5-0.1-0.7l1.4-8.3c0.1-0.2,0.1-0.4,0-0.6c0-0.2-0.1-0.4-0.3-0.5l-6.1-5.9c-0.2-0.2-0.3-0.4-0.3-0.6
		c-0.1-0.2,0-0.5,0-0.7c0.1-0.2,0.2-0.4,0.4-0.6s0.4-0.2,0.6-0.3l8.3-1.2c0.2,0,0.4-0.1,0.6-0.2c0.2-0.1,0.3-0.3,0.4-0.5l3.7-7.5
		c0.1-0.2,0.3-0.4,0.5-0.5c0.2-0.1,0.4-0.2,0.7-0.2c0.2,0,0.5,0.1,0.7,0.2c0.2,0.1,0.4,0.3,0.5,0.5l3.7,7.5c0.1,0.2,0.2,0.4,0.4,0.5
		c0.2,0.1,0.4,0.2,0.6,0.2l8.3,1.3c0.2,0,0.5,0.1,0.6,0.3c0.2,0.2,0.3,0.4,0.4,0.6C60.8,43.5,60.9,43.7,60.8,44z"/>
	<path id="Ellipse_19" class="st1" d="M72.8,47.6c0,15-12.1,27.1-27.1,27.1S18.5,62.6,18.5,47.6c0-15,12.1-27.1,27.1-27.1
		S72.8,32.7,72.8,47.6z"/>
	<path id="Vector_00000152222554274178112940000016252376767780602558_" class="st1" d="M46.7,32.9l3.7,7.5c0.1,0.2,0.2,0.4,0.4,0.5
		c0.2,0.1,0.4,0.2,0.6,0.2l8.3,1.3c0.2,0,0.5,0.1,0.6,0.3c0.2,0.2,0.3,0.4,0.4,0.6c0.1,0.2,0.1,0.5,0,0.7c-0.1,0.2-0.2,0.4-0.4,0.6
		l-6.1,5.8c-0.1,0.2-0.1,0.4-0.1,0.6s0,0.4,0.1,0.6l1.2,8.3c0.1,0.2,0,0.5-0.1,0.7c-0.1,0.2-0.2,0.4-0.4,0.6
		c-0.2,0.1-0.4,0.2-0.7,0.2c-0.2,0-0.5,0-0.7-0.2l-7.4-3.9c-0.2-0.1-0.4-0.1-0.6-0.1c-0.2,0-0.4,0-0.6,0.1l-7.4,3.9
		c-0.2,0.1-0.5,0.2-0.7,0.2c-0.2,0-0.5-0.1-0.7-0.2c-0.2-0.1-0.3-0.3-0.4-0.6c-0.1-0.2-0.1-0.5-0.1-0.7l1.4-8.3
		c0.1-0.2,0.1-0.4,0-0.6c0-0.2-0.1-0.4-0.3-0.5l-6.1-5.9c-0.2-0.2-0.3-0.4-0.3-0.6c-0.1-0.2,0-0.5,0-0.7c0.1-0.2,0.2-0.4,0.4-0.6
		c0.2-0.2,0.4-0.2,0.6-0.3l8.3-1.2c0.2,0,0.4-0.1,0.6-0.2c0.2-0.1,0.3-0.3,0.4-0.5l3.7-7.5c0.1-0.2,0.3-0.4,0.5-0.5
		c0.2-0.1,0.4-0.2,0.7-0.2c0.2,0,0.5,0.1,0.7,0.2C46.5,32.5,46.6,32.7,46.7,32.9z"/>
	<path id="Vector_2353" class="st2" d="M22.1,60.9L10.1,81.8l13-3.5l3.5,13l10.5-18.1"/>
	<path id="Vector_2354" class="st2" d="M69.2,60.9l12.1,20.9l-13-3.5l-3.5,13L54.2,73.3"/>
</g>
</svg>
