<?xml version="1.0" encoding="utf-8"?>
<!-- Generator: Adobe Illustrator 28.0.0, SVG Export Plug-In . SVG Version: 6.00 Build 0)  -->
<svg version="1.1" id="레이어_1" xmlns="http://www.w3.org/2000/svg" xmlns:xlink="http://www.w3.org/1999/xlink" x="0px"
	 y="0px" viewBox="0 0 91.3 109.9" style="enable-background:new 0 0 91.3 109.9;" xml:space="preserve">
<style type="text/css">
	.st0{fill:#FFFFFF;}
	.st1{fill:url(#SVGID_1_);}
	.st2{fill:none;stroke:#FFFFFF;stroke-width:4;stroke-miterlimit:10;}
	.st3{fill:none;stroke:#FFFFFF;stroke-width:4;stroke-linejoin:round;stroke-miterlimit:10;}
</style>
<g>
	<path class="st0" d="M26.5,88.6V77.3h-4.1v-2.7h11.3v2.7h-4.2v11.3H26.5z"/>
	<path class="st0" d="M43.5,88.6h3.1l-5.5-14h-2.7l-5.5,14h3l1.1-2.9h5.4L43.5,88.6z M37.9,83.3l0.8-2.1c0.1-0.3,0.2-0.6,0.3-0.9
		c0.1-0.3,0.2-0.7,0.3-1c0.1-0.3,0.2-0.7,0.3-1c0.1,0.3,0.2,0.6,0.3,1c0.1,0.4,0.2,0.7,0.3,1.1c0.1,0.3,0.2,0.6,0.3,0.8l0.8,2.2
		H37.9z"/>
	<path class="st0" d="M47.9,88.6v-14h3v11.3h6.3v2.7H47.9z"/>
	<path class="st0" d="M59.5,88.6v-14h3v11.3h6.3v2.7H59.5z"/>
</g>
<linearGradient id="SVGID_1_" gradientUnits="userSpaceOnUse" x1="31.1587" y1="50.3262" x2="60.3968" y2="50.3262">
	<stop  offset="0.5" style="stop-color:#FFFFFF;stop-opacity:0"/>
	<stop  offset="1" style="stop-color:#CCCCCC"/>
</linearGradient>
<path class="st1" d="M55.2,67H36.3c-1,0-1.8-0.8-1.9-1.7l-3.3-31.5h29.2l-3.3,31.5C57,66.2,56.2,67,55.2,67z"/>
<path class="st2" d="M55.2,67H36.3c-1,0-1.8-0.8-1.9-1.7l-3.3-31.5h29.2l-3.3,31.5C57,66.2,56.2,67,55.2,67z"/>
<path class="st3" d="M57.8,21.6c-0.2-0.6-0.7-1-1.4-1H35.1c-0.6,0-1.2,0.4-1.4,1l-1.1,3.6l-1.6,0c-1.6,0-2.8,1.3-2.8,2.8v5.7h35.1
	V28c0-1.6-1.3-2.8-2.8-2.8h-1.6L57.8,21.6z"/>
</svg>
