<?xml version="1.0" encoding="utf-8"?>
<!-- Generator: Adobe Illustrator 28.0.0, SVG Export Plug-In . SVG Version: 6.00 Build 0)  -->
<svg version="1.1" id="레이어_1" xmlns="http://www.w3.org/2000/svg" xmlns:xlink="http://www.w3.org/1999/xlink" x="0px"
	 y="0px" viewBox="0 0 91.3 109.9" style="enable-background:new 0 0 91.3 109.9;" xml:space="preserve">
<style type="text/css">
	.st0{fill:url(#SVGID_1_);}
	.st1{fill:none;stroke:#FFFFFF;stroke-width:4;stroke-linecap:round;stroke-linejoin:round;stroke-miterlimit:10;}
	.st2{fill:none;stroke:#000001;stroke-width:3.8669;stroke-linecap:round;stroke-linejoin:round;stroke-miterlimit:10;}
	.st3{fill:none;stroke:#FFFFFF;stroke-width:4;stroke-linecap:round;stroke-miterlimit:10;}
	.st4{fill:none;stroke:#FFFFFF;stroke-width:2.303;stroke-linecap:round;stroke-linejoin:round;stroke-miterlimit:10;}
	.st5{fill:#FFFFFF;}
</style>
<linearGradient id="SVGID_1_" gradientUnits="userSpaceOnUse" x1="19.2673" y1="54.9501" x2="72.0352" y2="54.9501">
	<stop  offset="0.5" style="stop-color:#FFFFFF;stop-opacity:0"/>
	<stop  offset="1" style="stop-color:#CCCCCC"/>
</linearGradient>
<path class="st0" d="M66.4,70.9l-0.1-0.2c-0.1-0.2-0.2-0.6-0.2-1c-0.1-0.4-0.1-0.8-0.2-1.2c-0.4-2.1-1-4-1.9-5.8
	c-0.5-1.1-1.2-2-1.9-2.9c3.5-6.2,16.4-30.7,6-42.9c-2.1-2.5-5.4-3.7-8.7-3.3c-2.5,0.4-7.3,2.2-10.6,9.9c-1.3,3.1-2.3,6.2-3.1,9.1
	c-0.7-3-1.7-6-3.1-9.1c-3.3-7.8-8.1-9.5-10.6-9.9c-3.3-0.5-6.6,0.8-8.7,3.2c-10.4,12.3,2.4,36.7,6,42.9c-0.1,0.1-0.2,0.2-0.3,0.4
	c-0.5,0.7-1,1.6-1.6,2.6c-0.8,1.7-1.5,3.6-2,5.8l0,0.2c-0.1,0.8-0.2,1.5-0.4,2l-0.1,0.2c-0.2,0.5-0.5,1.1-0.9,1.8
	c-2.6,5.2-2.6,10.4-0.2,14.9c1.2,2.1,2.8,3.8,4.8,5.2c4,2.5,9,3.7,15.5,3.7h3.1c6.7,0,11.7-1.2,15.6-3.7c2.2-1.5,3.7-3.1,4.8-5.2
	c2.4-4.5,2.4-9.6-0.2-14.9C66.9,72,66.6,71.4,66.4,70.9z"/>
<g>
	<g>
		<path class="st1" d="M31.7,60.1c0,0-17.9-29.1-7-42c3.2-3.8,11.2-4.8,16,6.2s5.4,22.2,4.1,31.6"/>
		<path class="st1" d="M59.6,60.1c0,0,17.9-29.1,7-42c-3.2-3.8-11.2-4.8-16,6.2s-5.4,22.2-4.1,31.6"/>
	</g>
	<path class="st2" d="M26.3,68.4"/>
	<g>
		<g>
			<path class="st3" d="M34,57.8c-1.3,1-2.5,2.1-3.4,3.5c-0.5,0.7-0.9,1.5-1.4,2.4c-0.8,1.7-1.4,3.5-1.9,5.4
				c-0.1,0.9-0.2,1.8-0.6,2.6c-0.2,0.7-0.6,1.3-0.9,2c-2.1,4.4-2.5,8.9-0.2,13c1.1,1.9,2.5,3.4,4.1,4.5c4.1,2.6,9.3,3.4,14.4,3.4
				c0.1,0,1.5,0,1.5,0s1.4,0,1.5,0c5.1,0,10.3-0.7,14.4-3.4c1.7-1.1,3.1-2.5,4.1-4.5c2.2-4.1,1.9-8.6-0.2-13c-0.4-0.7-0.7-1.3-0.9-2
				c-0.4-0.8-0.4-1.7-0.6-2.6c-0.4-1.9-0.9-3.7-1.8-5.4c-1.2-2.4-2.8-4.4-4.9-5.9"/>
		</g>
	</g>
	<path class="st2" d="M45.6,81.4"/>
	<path class="st4" d="M48.4,85.2c0,1.1-1.3,2.1-2.8,2.1c-1.5,0-2.8-0.9-2.8-2.1s1.3-2.4,2.8-2.4C47.2,82.9,48.4,84.1,48.4,85.2z"/>
	<g>
		<path class="st5" d="M45.6,74.4c0.6,0,1.2,0,1.4-0.1c0.5-0.1,1.1-0.2,1.4-0.4c3.5-1.6,7.3-2.5,11.2-2c1.2,0.1,2.5,0.4,3.4,1.1
			c0.7,0.6,0.9,1.3,0.8,2.1c-0.4,2.2-3.1,3.9-5.6,4.7c-2.7,0.9-5.8,1.1-8.4,0c-0.7-0.3-1.3-0.7-1.9-1.3c-0.4-0.4-0.7-0.8-1-1.1
			c-0.2-0.2-0.5-0.5-0.7-0.7c-0.2-0.2-0.5-0.5-0.8-0.5c0,0-0.1,0-0.1,0h-0.1h-0.1h-0.1c0,0-0.1,0-0.1,0c-0.4,0-0.7,0.5-1,0.8
			c-0.3,0.3-0.6,0.7-0.9,1.1c-0.1,0.2-0.3,0.3-0.4,0.5c-0.1,0.1-0.2,0.2-0.2,0.2c0,0-0.2,0.2-0.2,0.2c-0.4,0.4-1,0.7-1.5,0.9
			c-2.6,1.1-5.8,0.9-8.4,0c-2.5-0.8-5.1-2.5-5.6-4.7c-0.1-0.8,0.1-1.6,0.8-2.1c0.9-0.7,2.1-0.9,3.4-1.1c3.9-0.6,7.7,0.3,11.2,2
			c0.5,0.2,0.9,0.4,1.4,0.4C44.4,74.4,45,74.4,45.6,74.4z"/>
	</g>
</g>
</svg>
