<?xml version="1.0" encoding="utf-8"?>
<!-- Generator: Adobe Illustrator 28.0.0, SVG Export Plug-In . SVG Version: 6.00 Build 0)  -->
<svg version="1.1" id="레이어_1" xmlns="http://www.w3.org/2000/svg" xmlns:xlink="http://www.w3.org/1999/xlink" x="0px"
	 y="0px" viewBox="0 0 91.3 109.9" style="enable-background:new 0 0 91.3 109.9;" xml:space="preserve">
<style type="text/css">
	.st0{fill:url(#SVGID_1_);}
	.st1{fill:none;stroke:#FFFFFF;stroke-width:2.5;stroke-linecap:round;stroke-linejoin:round;}
	.st2{fill:none;stroke:#FFFFFF;stroke-width:1.5;stroke-linecap:round;stroke-linejoin:round;}
	.st3{fill:none;stroke:#FFFFFF;stroke-width:4;stroke-miterlimit:10;}
	.st4{fill:none;stroke:#FFFFFF;stroke-width:4;stroke-linejoin:round;stroke-miterlimit:10;}
</style>
<linearGradient id="SVGID_1_" gradientUnits="userSpaceOnUse" x1="24.3095" y1="67.3768" x2="67.246" y2="67.3768">
	<stop  offset="0.5" style="stop-color:#FFFFFF;stop-opacity:0"/>
	<stop  offset="1" style="stop-color:#CCCCCC"/>
</linearGradient>
<path class="st0" d="M59.6,91.8H31.9c-1.5,0-2.7-1.1-2.8-2.6L24.3,43h42.9l-4.8,46.3C62.3,90.7,61.1,91.8,59.6,91.8z"/>
<g>
	<g id="strawberry--fruit-sweet-berries-plant-strawberry_00000165221412128284938820000013705061091885250214_">
		<path id="Ellipse_272_00000171679753427063036710000005212739604821289917_" class="st1" d="M36.4,62.2c0-4.4,2.2-7.5,9.2-7.5
			s9.2,3.1,9.2,7.5c0,4.8-5.1,11-9.2,11S36.4,67.1,36.4,62.2z"/>
		<path id="Subtract_00000095335362647940021880000007844346208732110467_" class="st1" d="M39.1,56.3c-0.7-1.1-1.3-2.4-1.6-3.2
			c-0.2-0.5,0.1-1,0.5-1.1c0.1,0,0.1,0,0.2,0c1.4-0.3,4.1-0.5,5.8,0.5c0.8,0.5,1.3,1,1.7,1.5c0.4-0.5,0.9-1,1.7-1.5
			c1.7-1,4.3-0.7,5.8-0.5c0.6,0.1,0.9,0.7,0.7,1.2c-0.3,0.8-0.8,2.1-1.6,3.2"/>
		<path id="Vector_1406_00000175324267246997679990000011828178685463852465_" class="st2" d="M43.1,59.4v-1"/>
		<path id="Vector_1411_00000141431009059527751970000016734103093682092975_" class="st2" d="M43.6,68.6v-1"/>
		<path id="Vector_1410_00000052063052512735716460000000947202035304363392_" class="st2" d="M40.5,64v-1"/>
		<path id="Vector_1407_00000156556781730012910590000013223477838034190467_" class="st2" d="M48.2,59.4v-1"/>
		<path id="Vector_1412_00000080894149888378991410000009864714526017766814_" class="st2" d="M47.7,68.6v-1"/>
		<path id="Vector_1409_00000076593199098122223560000016809126461755668634_" class="st2" d="M50.8,64v-1"/>
		<path id="Vector_1408_00000012461791631293649760000009684373576447581360_" class="st2" d="M45.7,64v-1"/>
	</g>
	<path class="st3" d="M59.5,91.8H31.8c-1.5,0-2.7-1.1-2.8-2.6L24.2,43h42.9l-4.8,46.3C62.2,90.7,61,91.8,59.5,91.8z"/>
	<path class="st4" d="M63.4,25.8c-0.4-1.2-1.5-2-2.7-2H30.6c-1.3,0-2.4,0.8-2.7,2l-1.4,4.7l-2.3,0c-2.4,0-4.3,1.9-4.3,4.3V43h51.5
		v-8.2c0-2.4-1.9-4.3-4.3-4.3h-2.3L63.4,25.8z"/>
</g>
</svg>
