<?xml version="1.0" encoding="utf-8"?>
<!-- Generator: Adobe Illustrator 28.0.0, SVG Export Plug-In . SVG Version: 6.00 Build 0)  -->
<svg version="1.1" id="레이어_1" xmlns="http://www.w3.org/2000/svg" xmlns:xlink="http://www.w3.org/1999/xlink" x="0px"
	 y="0px" viewBox="0 0 91.3 109.9" style="enable-background:new 0 0 91.3 109.9;" xml:space="preserve">
<style type="text/css">
	.st0{fill:url(#SVGID_1_);}
	.st1{fill:none;stroke:#FFFFFF;stroke-width:3.5;stroke-linecap:round;stroke-linejoin:round;}
	.st2{fill:none;stroke:#FFFFFF;stroke-width:4;stroke-linejoin:round;stroke-miterlimit:10;}
	.st3{fill:none;stroke:#FFFFFF;stroke-width:4;stroke-miterlimit:10;}
</style>
<linearGradient id="SVGID_1_" gradientUnits="userSpaceOnUse" x1="24.3095" y1="67.3768" x2="67.246" y2="67.3768">
	<stop  offset="0.5" style="stop-color:#FFFFFF;stop-opacity:0"/>
	<stop  offset="1" style="stop-color:#CCCCCC"/>
</linearGradient>
<path class="st0" d="M59.6,91.8H31.9c-1.5,0-2.7-1.1-2.8-2.6L24.3,43h42.9l-4.8,46.3C62.3,90.7,61.1,91.8,59.6,91.8z"/>
<g id="coffee-bean--cook-cooking-nutrition-coffee-bean_00000000209912655589080640000002181646554405254296_">
	<path id="Rectangle_1097_00000045609225020743718540000005276758762962241209_" class="st1" d="M51.2,68.6
		c-3.5,3.5-8.7,5.3-12.4,1.9c-0.4-0.3-0.7-0.7-1.1-1.1c-3.4-3.7-1.6-8.9,1.9-12.4c0.3-0.3,0.5-0.5,0.8-0.8c3.5-3.5,8.7-5.3,12.4-1.9
		c0.4,0.3,0.7,0.7,1.1,1.1c3.4,3.7,1.6,8.9-1.9,12.4C51.7,68.1,51.4,68.4,51.2,68.6z"/>
	<path id="Vector_00000143584066961334625430000010094285602119451011_" class="st1" d="M53.8,55.3c-3.9,0.4-6.9,2.7-8,7.2
		c-1.2,4.5-4.1,6.7-8,7.2"/>
</g>
<path class="st2" d="M63.6,25.8c-0.4-1.2-1.5-2-2.7-2H30.7c-1.3,0-2.4,0.8-2.7,2l-1.4,4.7l-2.3,0c-2.4,0-4.3,1.9-4.3,4.3V43h51.5
	v-8.2c0-2.4-1.9-4.3-4.3-4.3H65L63.6,25.8z"/>
<path class="st3" d="M59.6,91.8H31.9c-1.5,0-2.7-1.1-2.8-2.6L24.3,43h42.9l-4.8,46.3C62.3,90.7,61.1,91.8,59.6,91.8z"/>
</svg>
