<?xml version="1.0" encoding="utf-8"?>
<!-- Generator: Adobe Illustrator 28.0.0, SVG Export Plug-In . SVG Version: 6.00 Build 0)  -->
<svg version="1.1" id="레이어_1" xmlns="http://www.w3.org/2000/svg" xmlns:xlink="http://www.w3.org/1999/xlink" x="0px"
	 y="0px" viewBox="0 0 91.3 109.9" style="enable-background:new 0 0 91.3 109.9;" xml:space="preserve">
<style type="text/css">
	.st0{fill:url(#SVGID_1_);}
	.st1{fill:none;stroke:#FFFFFF;stroke-width:4;stroke-linecap:round;stroke-linejoin:round;}
	.st2{fill:none;stroke:#FFFFFF;stroke-width:2.6919;stroke-miterlimit:10;}
</style>
<linearGradient id="SVGID_1_" gradientUnits="userSpaceOnUse" x1="24.2691" y1="70.5242" x2="67.0069" y2="70.5242">
	<stop  offset="0.3" style="stop-color:#FFFFFF;stop-opacity:0"/>
	<stop  offset="1" style="stop-color:#CCCCCC"/>
</linearGradient>
<path class="st0" d="M27.9,86.2c0.2,3.2,2.9,5.7,6.1,5.7h23.3c3.2,0,5.9-2.5,6.1-5.7L67,49.2H24.3L27.9,86.2z"/>
<g id="milkshake--milkshake-drink-takeaway-cup-cold-beverage_00000129903238087573583450000015078438874607392145_">
	<path id="Vector_2077_00000156572071848496440330000003711485930839564954_" class="st1" d="M24.3,49.2v-3.1
		c0-11.8,9.6-21.4,21.4-21.4S67,34.3,67,46.1v3.1l-3.6,37.1c-0.2,3.2-2.9,5.7-6.1,5.7H34c-3.2,0-5.9-2.5-6.1-5.7L24.3,49.2z"/>
	<path id="Vector_2080_00000008130209528640854860000011022328534133515167_" class="st1" d="M18.2,49.2h54.9"/>
	<path id="Vector_00000024705881600838099210000008012376712441140911_" class="st1" d="M56.1,27.5l4.8-15"/>
	<g>
		<path class="st2" d="M55,67.7L47.4,67c-0.6-0.1-1.1-0.6-1-1.2l0.7-7.6c0.1-0.6,0.6-1.1,1.2-1l7.6,0.7c0.6,0.1,1.1,0.6,1,1.2
			l-0.7,7.6C56.2,67.3,55.6,67.7,55,67.7z"/>
		<path class="st2" d="M45.3,73.1l-7.5,1.3c-0.6,0.1-1.2-0.3-1.3-0.9L35.1,66c-0.1-0.6,0.3-1.2,0.9-1.3l7.5-1.3
			c0.6-0.1,1.2,0.3,1.3,0.9l1.3,7.5C46.3,72.4,45.9,73,45.3,73.1z"/>
	</g>
</g>
</svg>
