<?xml version="1.0" encoding="utf-8"?>
<!-- Generator: Adobe Illustrator 28.0.0, SVG Export Plug-In . SVG Version: 6.00 Build 0)  -->
<svg version="1.1" id="레이어_1" xmlns="http://www.w3.org/2000/svg" xmlns:xlink="http://www.w3.org/1999/xlink" x="0px"
	 y="0px" viewBox="0 0 91.3 109.9" style="enable-background:new 0 0 91.3 109.9;" xml:space="preserve">
<style type="text/css">
	.st0{fill:url(#SVGID_1_);}
	.st1{fill:url(#SVGID_00000001645228228671336820000007685275509117967293_);}
	.st2{fill:none;stroke:#FFFFFF;stroke-width:4;stroke-miterlimit:10;}
	.st3{fill:url(#SVGID_00000155825922717070967470000005959583625662783927_);stroke:#FFFFFF;stroke-width:4;stroke-miterlimit:10;}
</style>
<g>
	<linearGradient id="SVGID_1_" gradientUnits="userSpaceOnUse" x1="28.5455" y1="89.1211" x2="28.5455" y2="54.9682">
		<stop  offset="0.3" style="stop-color:#FFFFFF;stop-opacity:0"/>
		<stop  offset="0.9" style="stop-color:#CCCCCC"/>
	</linearGradient>
	<path class="st0" d="M41.1,68.8c0.9,0.9,1.8,1.8,2.7,2.7c2.5,2.5,2.5,6.1,0,8.6c-2.4,2.4-4.8,4.8-7.2,7.2c-2.6,2.6-6.1,2.6-8.7,0
		c-4.8-4.8-9.7-9.7-14.5-14.5c-2.6-2.6-2.6-6.1,0-8.7c2.4-2.4,4.7-4.8,7.1-7.1c2.4-2.4,6.1-2.5,8.6-0.1c1,0.9,1.9,1.9,2.8,2.8
		L41.1,68.8"/>
</g>
<g>
	
		<linearGradient id="SVGID_00000150805387760997361150000015616718491971479936_" gradientUnits="userSpaceOnUse" x1="62.706" y1="54.9394" x2="62.706" y2="20.7789">
		<stop  offset="0.3" style="stop-color:#FFFFFF;stop-opacity:0"/>
		<stop  offset="0.9" style="stop-color:#CCCCCC"/>
	</linearGradient>
	<path style="fill:url(#SVGID_00000150805387760997361150000015616718491971479936_);" d="M59,49.9c1,1.1,2.1,2.1,3.1,3.2
		c2.5,2.5,6.1,2.5,8.6,0c2.4-2.4,4.8-4.8,7.2-7.2c2.5-2.5,2.5-6.1,0-8.6c-4.9-4.9-9.7-9.8-14.7-14.7c-2.4-2.4-6.1-2.4-8.6,0
		c-2.4,2.4-4.9,4.8-7.3,7.3c-2.5,2.5-2.4,6.1,0,8.6c0.9,0.9,1.9,1.9,2.8,2.8L59,49.9z"/>
</g>
<g>
	<path class="st2" d="M59,49.9c-0.2,0.2-0.3,0.3-0.5,0.4C52.7,56.2,46.9,62,41.1,67.8c-0.4,0.4-0.4,0.6,0,1c0.9,0.9,1.8,1.8,2.7,2.7
		c2.5,2.5,2.5,6.1,0,8.6c-2.4,2.4-4.8,4.8-7.2,7.2c-2.6,2.6-6.1,2.6-8.7,0c-4.8-4.8-9.7-9.7-14.5-14.5c-2.6-2.6-2.6-6.1,0-8.7
		c2.4-2.4,4.7-4.8,7.1-7.1c2.4-2.4,6.1-2.5,8.6-0.1c1,0.9,1.9,1.9,2.8,2.8c0.3,0.3,0.5,0.3,0.8,0c5.9-5.9,11.7-11.8,17.6-17.6
		c0.3-0.3,0.3-0.4,0-0.7c-1-0.9-1.9-1.9-2.8-2.8c-2.5-2.5-2.5-6.1,0-8.6c2.4-2.4,4.8-4.9,7.3-7.3c2.4-2.4,6.1-2.4,8.6,0
		c4.9,4.9,9.8,9.8,14.7,14.7c2.5,2.5,2.5,6.1,0,8.6c-2.4,2.4-4.8,4.8-7.2,7.2c-2.5,2.5-6.1,2.4-8.6,0C61.1,52,60,51,59,49.9z"/>
	<line class="st2" x1="31.9" y1="59.6" x2="41.1" y2="68.8"/>
	<line class="st2" x1="49.7" y1="40.7" x2="59.7" y2="50.6"/>
</g>
<linearGradient id="SVGID_00000117648913404946462950000010520830886832586926_" gradientUnits="userSpaceOnUse" x1="51.9344" y1="81.9997" x2="81.6116" y2="81.9997">
	<stop  offset="0" style="stop-color:#CCCCCC"/>
	<stop  offset="0.5" style="stop-color:#FFFFFF;stop-opacity:0"/>
</linearGradient>
<path style="fill:url(#SVGID_00000117648913404946462950000010520830886832586926_);stroke:#FFFFFF;stroke-width:4;stroke-miterlimit:10;" d="
	M81.6,82L81.6,82c0,3.7-3,6.6-6.6,6.6H58.6c-3.7,0-6.6-3-6.6-6.6v0c0-3.7,3-6.6,6.6-6.6H75C78.6,75.4,81.6,78.3,81.6,82z"/>
<line class="st2" x1="66.8" y1="75.4" x2="66.8" y2="88.6"/>
</svg>
