<?xml version="1.0" encoding="utf-8"?>
<!-- Generator: Adobe Illustrator 28.0.0, SVG Export Plug-In . SVG Version: 6.00 Build 0)  -->
<svg version="1.1" id="레이어_1" xmlns="http://www.w3.org/2000/svg" xmlns:xlink="http://www.w3.org/1999/xlink" x="0px"
	 y="0px" viewBox="0 0 91.3 109.9" style="enable-background:new 0 0 91.3 109.9;" xml:space="preserve">
<style type="text/css">
	.st0{fill:url(#Vector_00000136411174218801656270000008746552130318291593_);}
	.st1{fill:none;stroke:#FFFFFF;stroke-width:4;stroke-linecap:round;stroke-linejoin:round;}
	.st2{fill:none;stroke:#FFFFFF;stroke-width:3;stroke-miterlimit:10;}
	.st3{fill:none;stroke:#FFFFFF;stroke-width:4;stroke-miterlimit:10;}
</style>
<g id="leaf--nature-environment-leaf-ecology-plant-plants-eco">
	
		<linearGradient id="Vector_00000142170191318163292190000001365114718320933043_" gradientUnits="userSpaceOnUse" x1="43.7518" y1="28.8014" x2="43.7518" y2="85.6349">
		<stop  offset="0.45" style="stop-color:#FFFFFF;stop-opacity:0"/>
		<stop  offset="1" style="stop-color:#CCCCCC"/>
	</linearGradient>
	
		<path id="Vector_00000010307773354538206600000006827376472286360221_" style="fill:url(#Vector_00000142170191318163292190000001365114718320933043_);" d="
		M64.7,50.2c9.3,12.3,2.2,26.4-1.3,31.9c-0.5,0.8-1.2,1.4-2,1.9c-0.8,0.5-1.7,0.8-2.7,1c-6.7,1.1-23.5,2.3-32.5-10
		c-8.9-11.6-8.5-32-7.7-41.8c0-0.7,0.2-1.4,0.6-2.1c0.4-0.6,0.9-1.2,1.6-1.6c0.6-0.4,1.4-0.7,2.1-0.7s1.5,0,2.3,0.3
		C35.2,31.8,56,38.6,64.7,50.2z"/>
	<path id="Vector_00000000908595409370585400000011762805713016797347_" class="st1" d="M64.7,50.2c9.3,12.3,2.2,26.4-1.3,31.9
		c-0.5,0.8-1.2,1.4-2,1.9c-0.8,0.5-1.7,0.8-2.7,1c-6.7,1.1-23.5,2.3-32.5-10c-8.9-11.6-8.5-32-7.7-41.8c0-0.7,0.2-1.4,0.6-2.1
		c0.4-0.6,0.9-1.2,1.6-1.6c0.6-0.4,1.4-0.7,2.1-0.7s1.5,0,2.3,0.3C35.2,31.8,56,38.6,64.7,50.2z"/>
	<path id="Vector_2_00000111892459622688616390000016670088385536527038_" class="st1" d="M33.4,46.1c10.6,11.8,20,24.6,27.8,38.1"
		/>
</g>
<circle class="st2" cx="58.6" cy="18" r="4.3"/>
<circle class="st3" cx="71.5" cy="34.1" r="7.1"/>
</svg>
