<?xml version="1.0" encoding="utf-8"?>
<!-- Generator: Adobe Illustrator 28.0.0, SVG Export Plug-In . SVG Version: 6.00 Build 0)  -->
<svg version="1.1" id="레이어_1" xmlns="http://www.w3.org/2000/svg" xmlns:xlink="http://www.w3.org/1999/xlink" x="0px"
	 y="0px" viewBox="0 0 91.3 109.9" style="enable-background:new 0 0 91.3 109.9;" xml:space="preserve">
<style type="text/css">
	.st0{fill:url(#Vector_00000002360877908022140630000015052882594796262331_);}
	.st1{fill:none;stroke:#FFFFFF;stroke-width:4;stroke-linecap:round;stroke-linejoin:round;}
</style>
<g id="flash-1--flash-power-connect-charge-electricity-lightning_00000053531362405443413170000010837292363660179387_">
	
		<linearGradient id="Vector_00000026856799683421553210000013821071424802581181_" gradientUnits="userSpaceOnUse" x1="61.2222" y1="64.1223" x2="23.7384" y2="42.481">
		<stop  offset="0.5" style="stop-color:#FFFFFF;stop-opacity:0"/>
		<stop  offset="1" style="stop-color:#CCCCCC"/>
	</linearGradient>
	
		<path id="Vector_00000027582151093532874360000006325189583465384625_" style="fill:url(#Vector_00000026856799683421553210000013821071424802581181_);" d="
		M34.5,23.8L23.7,49.2c-0.1,0.4-0.2,0.8-0.2,1.1s0.2,0.8,0.4,1.1c0.2,0.3,0.5,0.6,0.9,0.8c0.3,0.2,0.7,0.3,1.1,0.3h13.4l-9.6,33.6
		l41.2-39c0.3-0.3,0.6-0.8,0.7-1.2c0.1-0.5,0.1-0.9-0.1-1.4c-0.2-0.4-0.5-0.8-0.9-1.1c-0.4-0.3-0.9-0.4-1.3-0.4h-18l9.6-19.2
		C60.9,23.8,34.5,23.8,34.5,23.8z"/>
</g>
<g id="flash-1--flash-power-connect-charge-electricity-lightning">
	<path id="Vector_00000054255177522990740990000008125989217637012393_" class="st1" d="M34.5,23.8L23.7,49.2
		c-0.1,0.4-0.2,0.8-0.2,1.1s0.2,0.8,0.4,1.1c0.2,0.3,0.5,0.6,0.9,0.8c0.3,0.2,0.7,0.3,1.1,0.3h13.4l-9.6,33.6l41.2-39
		c0.3-0.3,0.6-0.8,0.7-1.2c0.1-0.5,0.1-0.9-0.1-1.4c-0.2-0.4-0.5-0.8-0.9-1.1c-0.4-0.3-0.9-0.4-1.3-0.4h-18l9.6-19.2
		C60.9,23.8,34.5,23.8,34.5,23.8z"/>
</g>
</svg>
