<?xml version="1.0" encoding="utf-8"?>
<!-- Generator: Adobe Illustrator 28.0.0, SVG Export Plug-In . SVG Version: 6.00 Build 0)  -->
<svg version="1.1" id="레이어_1" xmlns="http://www.w3.org/2000/svg" xmlns:xlink="http://www.w3.org/1999/xlink" x="0px"
	 y="0px" viewBox="0 0 91.3 109.9" style="enable-background:new 0 0 91.3 109.9;" xml:space="preserve">
<style type="text/css">
	.st0{fill:url(#SVGID_1_);}
	.st1{fill:#FFFFFF;}
	.st2{fill:none;stroke:#FFFFFF;stroke-width:4;stroke-linecap:round;stroke-linejoin:round;}
	.st3{fill:none;stroke:#FFFFFF;stroke-width:4;}
	.st4{fill:url(#SVGID_00000018226807444206270480000010229569650122436791_);}
</style>
<linearGradient id="SVGID_1_" gradientUnits="userSpaceOnUse" x1="41.0173" y1="71.2962" x2="83.5729" y2="71.2962">
	<stop  offset="0.5" style="stop-color:#FFFFFF;stop-opacity:0"/>
	<stop  offset="1" style="stop-color:#CCCCCC"/>
</linearGradient>
<path class="st0" d="M62.3,50C50.5,50,41,59.5,41,71.3s9.5,21.3,21.3,21.3S83.6,83,83.6,71.3S74,50,62.3,50z M61.9,78
	c-3.7,0-6.8-3-6.8-6.8s3-6.8,6.8-6.8c3.7,0,6.8,3,6.8,6.8S65.7,78,61.9,78z"/>
<g>
	<path class="st1" d="M37.1,22c-0.4-0.3-0.9-0.6-1.5-0.9c-0.6-0.2-1.2-0.4-2-0.6c-0.4-0.1-0.7-0.2-1.1-0.3c-0.3-0.1-0.6-0.2-0.8-0.4
		s-0.4-0.3-0.5-0.5C31.1,19.2,31,19,31,18.7c0-0.3,0.1-0.5,0.3-0.8c0.2-0.2,0.4-0.4,0.8-0.5c0.3-0.1,0.7-0.2,1.1-0.2
		c0.4,0,0.8,0.1,1.2,0.2s0.7,0.3,1.1,0.6c0.3,0.3,0.6,0.6,0.9,0.9l1.9-1.8c-0.3-0.5-0.7-1-1.2-1.3c-0.5-0.4-1-0.6-1.7-0.8
		c-0.6-0.2-1.4-0.3-2.2-0.3c-0.7,0-1.4,0.1-2,0.3s-1.2,0.5-1.6,0.9c-0.5,0.4-0.8,0.8-1.1,1.3c-0.3,0.5-0.4,1.1-0.4,1.7
		c0,0.6,0.1,1.1,0.3,1.6c0.2,0.5,0.5,0.9,0.8,1.2c0.4,0.4,0.8,0.7,1.4,0.9c0.6,0.2,1.2,0.5,2,0.6c0.3,0.1,0.7,0.1,1,0.2
		c0.3,0.1,0.6,0.2,0.8,0.3s0.4,0.2,0.6,0.4c0.2,0.1,0.3,0.3,0.4,0.5c0.1,0.2,0.1,0.4,0.1,0.6c0,0.3-0.1,0.5-0.3,0.8
		c-0.2,0.2-0.4,0.4-0.8,0.5c-0.3,0.1-0.7,0.2-1.1,0.2c-0.8,0-1.5-0.2-2.1-0.5s-1.3-0.9-1.9-1.9l-1.9,2.1c0.4,0.6,0.9,1.1,1.5,1.5
		s1.2,0.7,1.9,0.9c0.7,0.2,1.5,0.3,2.4,0.3c1.1,0,2-0.2,2.8-0.5c0.8-0.4,1.4-0.9,1.9-1.5c0.5-0.7,0.7-1.5,0.7-2.4
		c0-0.6-0.1-1.1-0.3-1.6S37.5,22.3,37.1,22z"/>
	<polygon class="st1" points="44.1,23.1 49.6,23.1 49.6,20.6 44.1,20.6 44.1,17.6 50.6,17.6 50.6,15 41.1,15 41.1,29 50.7,29 
		50.7,26.4 44.1,26.4 	"/>
	<polygon class="st1" points="52.7,15 52.7,17.7 56.7,17.7 56.7,29 59.7,29 59.7,17.7 64,17.7 64,15 	"/>
</g>
<path id="Ellipse_913_00000007422818352960081780000000518445950631303608_" class="st2" d="M55.8,71.3c0,3.6,2.9,6.5,6.5,6.5
	c3.6,0,6.5-2.9,6.5-6.5c0,0,0,0,0,0c0-3.6-2.9-6.5-6.5-6.5S55.8,67.7,55.8,71.3"/>
<path id="Vector_2172_00000048465329621851357150000001715184878047527040_" class="st2" d="M77,69.7l-1.6,3.3"/>
<path id="Vector_2173_00000105422816281474876380000008432487833263381672_" class="st2" d="M49.2,77.8l3.3,3.3"/>
<path id="Vector_2174_00000160159554671313552600000002626272212124699572_" class="st2" d="M65.6,56.6l3.3,3.3"/>
<g id="Group_11_00000004540279172892419910000001178987288538973083_">
	<path id="Ellipse_1094_00000081608772275421070140000008426904270332849084_" class="st3" d="M50.8,63.9c-0.5,0-0.8-0.4-0.8-0.8
		s0.4-0.8,0.8-0.8"/>
	<path id="Ellipse_1095_00000025407009275204557520000002440645000737675674_" class="st3" d="M50.8,63.9c0.5,0,0.8-0.4,0.8-0.8
		s-0.4-0.8-0.8-0.8"/>
</g>
<g id="Group_20_00000057137312812358147280000007853702307054953137_">
	<path id="Ellipse_1094_x5F_2_00000122687695300247423860000005554357391475667901_" class="st3" d="M67.2,85.2
		c-0.5,0-0.8-0.4-0.8-0.8s0.4-0.8,0.8-0.8"/>
	<path id="Ellipse_1095_x5F_2_00000010301730645596695090000005826540345639048860_" class="st3" d="M67.2,85.2
		c0.5,0,0.8-0.4,0.8-0.8s-0.4-0.8-0.8-0.8"/>
</g>
<path class="st1" d="M62.3,48c-2.9,0-5.7,0.5-8.3,1.5c-0.8-1-2-1.8-3.4-2.1L47,38.2c-0.3-0.8-1-1.3-1.9-1.3H16.2
	c-0.8,0-1.6,0.5-1.9,1.3l-3.7,9.2C8,48.1,6,50.5,6,53.4v8.2c0,2.8,1.8,5.1,4.4,5.9l3.9,25.4c0.1,1,1,1.7,2,1.7h28.9
	c1,0,1.8-0.7,2-1.7l0.5-3.5c4,3.3,9.1,5.2,14.7,5.2c0,0,0,0,0,0c6.2,0,12.1-2.4,16.4-6.8c4.4-4.4,6.8-10.2,6.8-16.5
	C85.6,58.5,75.1,48,62.3,48z M17.6,41h26.2l2.5,6.3H15.1L17.6,41z M12.1,63.8c-1.2,0-2.1-1-2.1-2.1v-8.2c0-1.2,1-2.1,2.1-2.1h37.1
	c0.3,0,0.6,0.1,0.9,0.2c-4.6,2.8-8.1,7.1-9.8,12.3H12.1z M43.4,90.6H18l-3.5-22.8h24.9c-0.2,1.2-0.3,2.3-0.3,3.5
	c0,5.5,1.9,10.5,5.1,14.5L43.4,90.6z M62.3,90.6c-0.7,0-1.3,0-2-0.1c-0.2,0-0.3-0.1-0.5-0.1c-0.5-0.1-1-0.1-1.5-0.2
	c-0.1,0-0.3-0.1-0.4-0.1c-0.5-0.1-1-0.2-1.5-0.4c-0.1,0-0.2-0.1-0.3-0.1c-0.5-0.2-1-0.4-1.5-0.6c-0.1,0-0.1-0.1-0.2-0.1
	c-0.5-0.2-1.1-0.5-1.6-0.8c0,0,0,0-0.1,0c-1.7-0.9-3.2-2.1-4.5-3.5c0,0,0,0,0,0l0,0c-1.3-1.4-2.5-3-3.3-4.7v0c0,0,0,0,0,0
	c-0.3-0.6-0.5-1.2-0.8-1.8c0-0.1-0.1-0.2-0.1-0.3c-0.1-0.4-0.3-0.8-0.4-1.2c-0.1-0.3-0.2-0.6-0.2-0.9c0-0.2-0.1-0.4-0.1-0.6
	c-0.1-0.5-0.2-1-0.2-1.5c0-0.1,0-0.2,0-0.4c-0.1-0.6-0.1-1.2-0.1-1.7c0-0.6,0-1.2,0.1-1.8c0.2-2,0.7-3.9,1.4-5.7
	c0.2-0.5,0.4-1,0.7-1.4c0.1-0.2,0.2-0.4,0.3-0.5c0.2-0.3,0.4-0.6,0.6-0.9c0.1-0.2,0.2-0.4,0.4-0.5c0.3-0.4,0.5-0.7,0.8-1.1
	c0.2-0.2,0.4-0.4,0.5-0.6c0.2-0.2,0.4-0.5,0.6-0.7c0.2-0.2,0.4-0.4,0.6-0.6c0.2-0.2,0.4-0.4,0.6-0.5c0.2-0.2,0.4-0.4,0.6-0.6
	c0.4-0.3,0.7-0.6,1.1-0.8l0,0c1.2-0.9,2.6-1.6,4-2.1l0,0c0,0,0,0,0,0c0.5-0.2,1.1-0.4,1.6-0.6c0,0,0,0,0,0c0.5-0.2,1.1-0.3,1.7-0.4
	c0.1,0,0.3,0,0.4-0.1c0.4-0.1,0.9-0.2,1.3-0.2c0.6-0.1,1.2-0.1,1.9-0.1c10.6,0,19.3,8.6,19.3,19.3C81.6,81.9,72.9,90.6,62.3,90.6z"
	/>
<g>
	
		<linearGradient id="SVGID_00000160886169941611599190000005939553661634417042_" gradientUnits="userSpaceOnUse" x1="9.9945" y1="57.5104" x2="50.1346" y2="57.5104">
		<stop  offset="0.5" style="stop-color:#FFFFFF;stop-opacity:0"/>
		<stop  offset="1" style="stop-color:#CCCCCC"/>
	</linearGradient>
	<path style="fill:url(#SVGID_00000160886169941611599190000005939553661634417042_);" d="M12.1,63.8h28.2c1.8-5.1,5.3-9.5,9.8-12.3
		c-0.3-0.1-0.6-0.2-0.9-0.2H12.1c-1.2,0-2.1,1-2.1,2.1v8.2C10,62.8,10.9,63.8,12.1,63.8z"/>
</g>
</svg>
