<?xml version="1.0" encoding="utf-8"?>
<!-- Generator: Adobe Illustrator 28.0.0, SVG Export Plug-In . SVG Version: 6.00 Build 0)  -->
<svg version="1.1" id="레이어_1" xmlns="http://www.w3.org/2000/svg" xmlns:xlink="http://www.w3.org/1999/xlink" x="0px"
	 y="0px" viewBox="0 0 91.3 109.9" style="enable-background:new 0 0 91.3 109.9;" xml:space="preserve">
<style type="text/css">
	.st0{fill:url(#SVGID_1_);}
	.st1{fill:none;stroke:#FFFFFF;stroke-width:4;stroke-linecap:round;stroke-linejoin:round;}
	.st2{fill:none;stroke:#FFFFFF;stroke-width:4;}
</style>
<g id="donut--dessert-donut_00000152244283868788332650000017865038282079669378_">
	<linearGradient id="SVGID_1_" gradientUnits="userSpaceOnUse" x1="10.2164" y1="54.9506" x2="81.0826" y2="54.9506">
		<stop  offset="0.5" style="stop-color:#FFFFFF;stop-opacity:0"/>
		<stop  offset="1" style="stop-color:#CCCCCC"/>
	</linearGradient>
	<path class="st0" d="M45.6,19.5c-19.6,0-35.4,15.9-35.4,35.4c0,19.6,15.9,35.4,35.4,35.4c19.6,0,35.4-15.9,35.4-35.4c0,0,0,0,0,0
		C81.1,35.4,65.2,19.5,45.6,19.5z M56.6,55c0,6-4.9,10.9-10.9,10.9S34.7,61,34.7,54.9c0-6,4.9-10.9,10.9-10.9S56.6,48.9,56.6,55
		C56.6,55,56.6,55,56.6,55z"/>
	<path id="Ellipse_912_00000056414450428859209500000003125697161573070476_" class="st1" d="M10.2,54.9c0,19.6,15.9,35.4,35.4,35.4
		c19.6,0,35.4-15.9,35.4-35.4c0,0,0,0,0,0c0-19.6-15.9-35.4-35.4-35.4S10.2,35.4,10.2,54.9"/>
	<path id="Ellipse_913_00000057138690888071908320000010326016808964964021_" class="st1" d="M34.7,54.9c0,6,4.9,10.9,10.9,10.9
		c6,0,10.9-4.9,10.9-10.9c0,0,0,0,0,0c0-6-4.9-10.9-10.9-10.9S34.7,48.9,34.7,54.9"/>
	<path id="Vector_2172_00000084524496055157756390000004156141982386805435_" class="st1" d="M70.2,52.2l-2.7,5.5"/>
	<path id="Vector_2173_00000099651772893526391790000014630015806036930734_" class="st1" d="M23.8,65.9l5.5,5.5"/>
	<path id="Vector_2174_00000063619203305873258800000010816058681062449080_" class="st1" d="M51.1,30.4l5.5,5.5"/>
	<g id="Group_11_00000028310804681159008800000018435066175726315952_">
		<path id="Ellipse_1094_00000012471286391883040390000007406633986929958817_" class="st2" d="M26.6,42.7c-0.8,0-1.4-0.6-1.4-1.4
			s0.6-1.4,1.4-1.4"/>
		<path id="Ellipse_1095_00000021084471239883091890000000426216970444718755_" class="st2" d="M26.6,42.7c0.8,0,1.4-0.6,1.4-1.4
			S27.3,40,26.6,40"/>
	</g>
	<g id="Group_20_00000044895106283434025520000014371129936200106374_">
		<path id="Ellipse_1094_x5F_2_00000041997108247254669210000010465807934786933388_" class="st2" d="M53.8,78.1
			c-0.8,0-1.4-0.6-1.4-1.4c0-0.8,0.6-1.4,1.4-1.4"/>
		<path id="Ellipse_1095_x5F_2_00000160877629618500959670000011740468915177864363_" class="st2" d="M53.8,78.1
			c0.8,0,1.4-0.6,1.4-1.4c0-0.8-0.6-1.4-1.4-1.4"/>
	</g>
</g>
</svg>
