<?xml version="1.0" encoding="utf-8"?>
<!-- Generator: Adobe Illustrator 28.0.0, SVG Export Plug-In . SVG Version: 6.00 Build 0)  -->
<svg version="1.1" id="레이어_1" xmlns="http://www.w3.org/2000/svg" xmlns:xlink="http://www.w3.org/1999/xlink" x="0px"
	 y="0px" viewBox="0 0 91.3 109.9" style="enable-background:new 0 0 91.3 109.9;" xml:space="preserve">
<style type="text/css">
	.st0{fill:url(#Vector_00000078731331196123998750000009492423891129172372_);}
	.st1{fill:none;stroke:#FFFFFF;stroke-width:4;stroke-linecap:round;stroke-linejoin:round;}
</style>
<g id="cake-slice--cherry-cake-birthday-event-special-sweet-bake_00000051360307485665907920000004733772567436299393_">
	
		<linearGradient id="Vector_00000070828578244976937440000015132520195288807579_" gradientUnits="userSpaceOnUse" x1="79.0042" y1="65.14" x2="9.2653" y2="65.14">
		<stop  offset="0" style="stop-color:#CCCCCC"/>
		<stop  offset="0.5" style="stop-color:#FFFFFF;stop-opacity:0"/>
	</linearGradient>
	
		<path id="Vector_00000129905279032235709100000002290746141860294576_" style="fill:url(#Vector_00000070828578244976937440000015132520195288807579_);" d="
		M74.9,46.5H16.3c-2.9,0-5.3,2.4-5.3,5.3v26.7c0,2.9,2.4,5.3,5.3,5.3h58.6c2.9,0,5.3-2.4,5.3-5.3V51.8
		C80.3,48.9,77.9,46.5,74.9,46.5z"/>
	<path id="Vector_00000145039652328813898060000013567844718619533238_" class="st1" d="M74.9,46.5H16.3c-2.9,0-5.3,2.4-5.3,5.3
		v26.7c0,2.9,2.4,5.3,5.3,5.3h58.6c2.9,0,5.3-2.4,5.3-5.3V51.8C80.3,48.9,77.9,46.5,74.9,46.5z"/>
	<path id="Vector_2_00000032631741804278256590000000322563604209810879_" class="st1" d="M27,46.5c5.9,0,10.7-4.8,10.7-10.7
		S32.9,25.2,27,25.2s-10.7,4.8-10.7,10.7S21.1,46.5,27,46.5z"/>
	<path id="Vector_3_00000040550378592973644600000001820143847970979752_" class="st1" d="M11,62.5h69.3"/>
	<path id="Vector_4_00000000935412941347902300000007891791900612830351_" class="st1" d="M27,25.2c0,0,0-10.7,8-10.7"/>
</g>
</svg>
