<?xml version="1.0" encoding="utf-8"?>
<!-- Generator: Adobe Illustrator 28.0.0, SVG Export Plug-In . SVG Version: 6.00 Build 0)  -->
<svg version="1.1" id="레이어_1" xmlns="http://www.w3.org/2000/svg" xmlns:xlink="http://www.w3.org/1999/xlink" x="0px"
	 y="0px" viewBox="0 0 91.3 109.9" style="enable-background:new 0 0 91.3 109.9;" xml:space="preserve">
<style type="text/css">
	.st0{fill:url(#SVGID_1_);}
	.st1{fill:url(#Ellipse_210_00000091699112539879285240000009470755383809568958_);}
	.st2{fill:#FFFFFF;}
</style>
<linearGradient id="SVGID_1_" gradientUnits="userSpaceOnUse" x1="76.2783" y1="39.127" x2="47.0828" y2="39.127">
	<stop  offset="0" style="stop-color:#CCCCCC"/>
	<stop  offset="0.55" style="stop-color:#FFFFFF;stop-opacity:0"/>
</linearGradient>
<path class="st0" d="M75.6,51.8c0.1-0.2,0.2-0.4,0.3-0.5c4.4-8.3,1.2-18.5-7.1-22.9c-8.3-4.4-18.5-1.2-22.9,7.1v0.1
	c3.2,2.5,5.6,6.2,6.3,10.6c0.3,1.8,0.3,3.7,0,5.6L75.6,51.8z"/>
<linearGradient id="Ellipse_210_00000003094129967950181060000010848691893895104666_" gradientUnits="userSpaceOnUse" x1="18.6803" y1="41.8811" x2="52.5259" y2="41.8811">
	<stop  offset="0.45" style="stop-color:#FFFFFF;stop-opacity:0"/>
	<stop  offset="1" style="stop-color:#CCCCCC"/>
</linearGradient>
<path id="Ellipse_210_00000133508755209661418930000001703201184775892402_" style="fill:url(#Ellipse_210_00000003094129967950181060000010848691893895104666_);" d="
	M18.9,51.7c-1.5-9.2,4.7-17.9,13.9-19.5c9.2-1.5,17.9,4.7,19.5,13.9c0.3,1.8,0.3,3.7,0,5.6L18.9,51.7z"/>
<path class="st2" d="M79.8,51c-0.2-0.5-0.6-0.9-1.1-1.1c3.2-8.8-0.4-18.8-8.9-23.3c-8.6-4.5-19.1-1.8-24.4,6.1
	c-3.9-2.3-8.4-3.2-12.8-2.4c-2.6,0.4-5,1.4-7.1,2.8L13,20.7c-0.8-0.8-2-0.8-2.8,0s-0.8,2,0,2.8l12,12c-0.7,0.7-1.4,1.5-2,2.4
	c-2.5,3.5-3.7,7.6-3.5,11.8h-0.8c-0.8,0-1.6,0.5-1.9,1.3c-2.9,7.2-2.5,14.1,1.2,19.4c3.4,5.1,11.4,11.1,29.7,11.5v8.7H30
	c-1.1,0-2,0.9-2,2s0.9,2,2,2h33.8c1.1,0,2-0.9,2-2s-0.9-2-2-2H48.9v-8.7c18.3-0.4,26.3-6.4,29.7-11.5C82.2,65.1,82.6,58.2,79.8,51z
	 M23.5,40.3c2.3-3.2,5.8-5.4,9.7-6.1c0.8-0.1,1.7-0.2,2.5-0.2c3.4,0,6.6,1.2,9.1,3.2c0.4,0.3,0.7,0.6,1,0.9c0,0,0,0,0,0
	c0.3,0.3,0.6,0.6,0.9,1c0,0,0,0,0,0c0.3,0.3,0.6,0.7,0.8,1c0,0,0,0,0,0c0.3,0.4,0.5,0.7,0.8,1.1c0,0,0,0,0,0
	c0.2,0.4,0.5,0.8,0.6,1.2c0,0,0,0,0,0c0.2,0.4,0.4,0.8,0.5,1.3c0,0,0,0,0,0c0.2,0.4,0.3,0.8,0.4,1.3c0,0,0,0,0,0.1
	c0.1,0.4,0.2,0.9,0.3,1.4c0.1,0.5,0.1,1,0.2,1.5c0,0.1,0,0.3,0,0.4c0,0.4,0,0.7,0,1.1c0,0.1,0,0.2,0,0.3l-29.8,0
	C20.5,46.4,21.5,43.1,23.5,40.3z M54.5,49.7c0-0.1,0-0.2,0-0.3c0-0.4,0-0.8,0-1.3c0-0.2,0-0.4,0-0.6c0-0.6-0.1-1.2-0.2-1.8
	c-0.1-0.6-0.2-1.1-0.4-1.7c-0.1-0.2-0.1-0.5-0.2-0.7c-0.1-0.3-0.2-0.6-0.3-0.9c-0.1-0.3-0.2-0.6-0.3-0.9c-0.1-0.2-0.2-0.4-0.3-0.6
	c-0.2-0.3-0.3-0.7-0.5-1c-0.1-0.1-0.1-0.2-0.2-0.3c-1-1.7-2.2-3.3-3.6-4.7c1.9-2.9,4.7-5,8-6c3.8-1.2,7.8-0.8,11.4,1
	c7.1,3.7,9.9,12.4,6.5,19.6H60.6L54.5,49.7z M75.3,68.2C71,74.6,61.1,78,46.9,78s-24.1-3.4-28.4-9.8c-3.3-4.9-2.6-10.3-1.2-14.4
	h43.4l15,0.1c0,0,0,0,0,0c0.1,0,0.3,0,0.4-0.1h0.5C77.9,57.8,78.6,63.3,75.3,68.2z"/>
</svg>
