<?xml version="1.0" encoding="utf-8"?>
<!-- Generator: Adobe Illustrator 28.0.0, SVG Export Plug-In . SVG Version: 6.00 Build 0)  -->
<svg version="1.1" id="레이어_1" xmlns="http://www.w3.org/2000/svg" xmlns:xlink="http://www.w3.org/1999/xlink" x="0px"
	 y="0px" viewBox="0 0 91.3 109.9" style="enable-background:new 0 0 91.3 109.9;" xml:space="preserve">
<style type="text/css">
	.st0{fill:url(#SVGID_1_);}
	.st1{fill:#FFFFFF;}
</style>
<linearGradient id="SVGID_1_" gradientUnits="userSpaceOnUse" x1="11.6342" y1="54.95" x2="79.6657" y2="54.95">
	<stop  offset="0.3" style="stop-color:#FFFFFF;stop-opacity:0"/>
	<stop  offset="1" style="stop-color:#CCCCCC"/>
</linearGradient>
<path class="st0" d="M73.6,61h-56c-3.3,0-6-2.7-6-6v0c0-3.3,2.7-6,6-6h56c3.3,0,6,2.7,6,6v0C79.7,58.3,77,61,73.6,61z"/>
<path class="st1" d="M84.5,46.1v-1.4c0-11.3-9.2-20.4-20.4-20.4H27.2C16,24.2,6.8,33.4,6.8,44.7v1.4c0,2.3,1.7,4.3,3.9,4.7
	C10,52,9.5,53.4,9.5,54.9c0,1.6,0.5,3.2,1.3,4.4c-2.4,0.9-4.1,3.2-4.1,5.9c0,11.3,9.2,20.4,20.4,20.4h36.8
	c11.3,0,20.4-9.2,20.4-20.4c0-2.7-1.7-5-4.1-5.9c0.8-1.3,1.3-2.8,1.3-4.4c0-1.5-0.4-2.9-1.1-4.1C82.8,50.4,84.5,48.4,84.5,46.1z
	 M10.8,44.7c0-9.1,7.4-16.4,16.4-16.4h36.8c9.1,0,16.4,7.4,16.4,16.4v1.4c0,0.5-0.4,0.8-0.8,0.8h-4.9c-0.4-0.1-0.7-0.1-1.1-0.1h-56
	c-0.4,0-0.8,0-1.1,0.1h-4.9c-0.5,0-0.8-0.4-0.8-0.8V44.7z M73.6,58.9h-56c-2.2,0-3.9-1.8-3.9-3.9s1.8-3.9,3.9-3.9h56
	c2.2,0,3.9,1.8,3.9,3.9S75.8,58.9,73.6,58.9z M64.1,81.7H27.2c-9.1,0-16.4-7.4-16.4-16.4c0-1.2,1-2.3,2.3-2.3h3.5
	c0.4,0.1,0.7,0.1,1.1,0.1h56c0.4,0,0.8,0,1.1-0.1h3.5c1.2,0,2.3,1,2.3,2.3C80.5,74.3,73.1,81.7,64.1,81.7z"/>
</svg>
