<?xml version="1.0" encoding="utf-8"?>
<!-- Generator: Adobe Illustrator 28.0.0, SVG Export Plug-In . SVG Version: 6.00 Build 0)  -->
<svg version="1.1" id="레이어_1" xmlns="http://www.w3.org/2000/svg" xmlns:xlink="http://www.w3.org/1999/xlink" x="0px"
	 y="0px" viewBox="0 0 91.3 109.9" style="enable-background:new 0 0 91.3 109.9;" xml:space="preserve">
<style type="text/css">
	.st0{fill:url(#SVGID_1_);}
	.st1{fill:#FFFFFF;}
	.st2{fill:none;stroke:#FFFFFF;stroke-width:4;}
</style>
<linearGradient id="SVGID_1_" gradientUnits="userSpaceOnUse" x1="8.7876" y1="54.95" x2="82.4884" y2="54.95">
	<stop  offset="0.5" style="stop-color:#FFFFFF;stop-opacity:0"/>
	<stop  offset="1" style="stop-color:#CCCCCC"/>
</linearGradient>
<path class="st0" d="M82.5,54.9c0-2.3-0.9-4.3-2.4-5.8c-1.7-1.7-2.3-4.1-1.7-6.4c0.6-2,0.3-4.3-0.8-6.2c-1.2-2-3-3.3-5.1-3.8
	c-2.2-0.5-4-2.3-4.5-4.5c-0.5-2.1-1.8-4-3.8-5.1c-2-1.1-4.2-1.4-6.2-0.8c-2.3,0.6-4.7,0-6.4-1.7c-1.5-1.5-3.5-2.4-5.8-2.4
	s-4.3,0.9-5.8,2.4c-1.7,1.7-4.1,2.3-6.4,1.7c-2-0.6-4.3-0.3-6.2,0.8c-2,1.2-3.3,3-3.8,5.1c-0.5,2.2-2.3,4-4.5,4.5
	c-2.1,0.5-4,1.8-5.1,3.8c-1.1,2-1.4,4.2-0.8,6.2c0.6,2.3,0,4.7-1.7,6.4c-1.5,1.5-2.4,3.5-2.4,5.8s0.9,4.3,2.4,5.8
	c1.7,1.7,2.3,4.1,1.7,6.4c-0.6,2-0.3,4.3,0.8,6.2c1.2,2,3,3.3,5.1,3.8c2.2,0.5,4,2.3,4.5,4.5c0.5,2.1,1.8,4,3.8,5.1
	c2,1.1,4.2,1.4,6.2,0.8c2.3-0.6,4.7,0,6.4,1.7c1.5,1.5,3.5,2.4,5.8,2.4s4.3-0.9,5.8-2.4c1.7-1.7,4.1-2.3,6.4-1.7
	c2,0.6,4.3,0.3,6.2-0.8c2-1.2,3.3-3,3.8-5.1c0.5-2.2,2.3-4,4.5-4.5c2.1-0.5,4-1.8,5.1-3.8c1.1-2,1.4-4.2,0.8-6.2
	c-0.6-2.3,0-4.7,1.7-6.4C81.6,59.3,82.5,57.2,82.5,54.9z"/>
<g>
	<path class="st1" d="M45.6,93.8c-2.7,0-5.3-1.1-7.2-3c-1.2-1.2-2.8-1.6-4.4-1.2c-2.6,0.7-5.4,0.4-7.8-1c-2.4-1.4-4.1-3.7-4.8-6.4
		c-0.4-1.5-1.6-2.7-3.1-3.1c-2.7-0.7-5-2.4-6.4-4.8c-1.4-2.4-1.7-5.1-1-7.8c0.4-1.6,0-3.2-1.2-4.4c-2-1.9-3-4.5-3-7.2s1.1-5.3,3-7.2
		c1.2-1.2,1.6-2.8,1.2-4.4c-0.7-2.6-0.4-5.4,1-7.8c1.4-2.4,3.7-4.1,6.4-4.8c1.5-0.4,2.7-1.6,3.1-3.1c0.7-2.7,2.4-5,4.8-6.4
		c2.4-1.4,5.1-1.7,7.8-1c1.6,0.4,3.2,0,4.4-1.2c1.9-2,4.5-3,7.2-3c2.7,0,5.3,1.1,7.2,3c1.2,1.2,2.8,1.6,4.4,1.2
		c2.6-0.7,5.4-0.4,7.8,1c2.4,1.4,4.1,3.7,4.8,6.4c0.4,1.5,1.6,2.7,3.1,3.1c2.7,0.7,5,2.4,6.4,4.8c1.4,2.4,1.7,5.1,1,7.8
		c-0.4,1.6,0,3.2,1.2,4.4c2,1.9,3,4.5,3,7.2s-1.1,5.3-3,7.2c-1.2,1.2-1.6,2.8-1.2,4.4c0.7,2.6,0.4,5.4-1,7.8
		c-1.4,2.4-3.7,4.1-6.4,4.8c-1.5,0.4-2.7,1.6-3.1,3.1c-0.7,2.7-2.4,5-4.8,6.4c-2.4,1.4-5.1,1.7-7.8,1c-1.6-0.4-3.2,0-4.4,1.2
		C50.9,92.7,48.4,93.8,45.6,93.8z M35.2,85.4c2.2,0,4.4,0.9,6,2.5c1.2,1.2,2.7,1.8,4.4,1.8c1.7,0,3.2-0.7,4.4-1.8
		c2.2-2.2,5.3-3.1,8.3-2.2c1.6,0.4,3.3,0.2,4.7-0.6c1.5-0.8,2.5-2.2,2.9-3.9c0.7-2.9,3.1-5.3,6-6c1.6-0.4,3-1.4,3.9-2.9
		c0.8-1.4,1-3.1,0.6-4.7c-0.8-3,0-6.1,2.2-8.3c1.2-1.2,1.8-2.7,1.8-4.4s-0.7-3.2-1.8-4.4c-2.2-2.2-3.1-5.3-2.2-8.3
		c0.4-1.6,0.2-3.3-0.6-4.7C75,36.1,73.6,35,72,34.6c-2.9-0.7-5.3-3.1-6-6c-0.4-1.6-1.4-3-2.9-3.9c-1.4-0.8-3.1-1-4.7-0.6
		c-3,0.8-6.1,0-8.3-2.2c-1.2-1.2-2.7-1.8-4.4-1.8s-3.2,0.7-4.4,1.8c-2.2,2.2-5.3,3.1-8.3,2.2c-1.6-0.4-3.3-0.2-4.7,0.6
		c-1.5,0.8-2.5,2.2-2.9,3.9c-0.7,2.9-3.1,5.3-6,6c-1.6,0.4-3,1.4-3.9,2.9c-0.8,1.4-1,3.1-0.6,4.7c0.8,3,0,6.1-2.2,8.3
		c-1.2,1.2-1.8,2.7-1.8,4.4s0.7,3.2,1.8,4.4c2.2,2.2,3.1,5.3,2.2,8.3c-0.4,1.6-0.2,3.3,0.6,4.7c0.8,1.5,2.2,2.5,3.9,2.9
		c2.9,0.7,5.3,3.1,6,6c0.4,1.6,1.4,3,2.9,3.9c1.4,0.8,3.1,1,4.7,0.6C33.7,85.5,34.5,85.4,35.2,85.4z"/>
</g>
<g>
	<g id="Group_11_00000134969993734104837050000015519082545403877277_">
		<path id="Ellipse_1094_00000067918650097669704890000008137494392595443133_" class="st2" d="M46.4,55.7c-0.4,0.4-1.1,0.4-1.6,0
			s-0.4-1.1,0-1.6"/>
		<path id="Ellipse_1095_00000024705207438192354440000005358076414951692218_" class="st2" d="M46.4,55.7c0.4-0.4,0.4-1.1,0-1.6
			s-1.1-0.4-1.6,0"/>
	</g>
	<g id="Group_11_00000106843050570713986180000005946719979556840867_">
		<path id="Ellipse_1094_00000146492185837774126550000005237740664436378795_" class="st2" d="M57.2,66.5c-0.4,0.4-1.1,0.4-1.6,0
			c-0.4-0.4-0.4-1.1,0-1.6"/>
		<path id="Ellipse_1095_00000099627745569145704850000003053365709807733633_" class="st2" d="M57.2,66.5c0.4-0.4,0.4-1.1,0-1.6
			c-0.4-0.4-1.1-0.4-1.6,0"/>
	</g>
	<g id="Group_11_00000076574125262919839170000013653327548726764680_">
		<path id="Ellipse_1094_00000112613004482873149620000009410834628455131069_" class="st2" d="M35.6,44.9c-0.4,0.4-1.1,0.4-1.6,0
			s-0.4-1.1,0-1.6"/>
		<path id="Ellipse_1095_00000042711098935889418290000005869360063193513874_" class="st2" d="M35.6,44.9c0.4-0.4,0.4-1.1,0-1.6
			s-1.1-0.4-1.6,0"/>
	</g>
	<g id="Group_11_00000161603021084766614110000009549454506561228206_">
		<path id="Ellipse_1094_00000068668139566908269710000018403505926448920724_" class="st2" d="M35.6,66.5c-0.4,0.4-1.1,0.4-1.6,0
			c-0.4-0.4-0.4-1.1,0-1.6"/>
		<path id="Ellipse_1095_00000090257736212648766880000008804560642078215059_" class="st2" d="M35.6,66.5c0.4-0.4,0.4-1.1,0-1.6
			c-0.4-0.4-1.1-0.4-1.6,0"/>
	</g>
	<g id="Group_11_00000178184673355256313400000017003099346941710480_">
		<path id="Ellipse_1094_00000053535498028076735730000003527360265380127674_" class="st2" d="M46.4,77.3c-0.4,0.4-1.1,0.4-1.6,0
			c-0.4-0.4-0.4-1.1,0-1.6"/>
		<path id="Ellipse_1095_00000102519627659513595820000008321588512624430743_" class="st2" d="M46.4,77.3c0.4-0.4,0.4-1.1,0-1.6
			c-0.4-0.4-1.1-0.4-1.6,0"/>
	</g>
	<g id="Group_11_00000090252395810971851840000010056448118637778876_">
		<path id="Ellipse_1094_00000087386592478533514350000015248060241795938715_" class="st2" d="M24.9,55.7c-0.4,0.4-1.1,0.4-1.6,0
			s-0.4-1.1,0-1.6"/>
		<path id="Ellipse_1095_00000111879529613278377800000018081720253202595261_" class="st2" d="M24.9,55.7c0.4-0.4,0.4-1.1,0-1.6
			s-1.1-0.4-1.6,0"/>
	</g>
	<g id="Group_11_00000016039856950466596330000017729941343897952947_">
		<path id="Ellipse_1094_00000115493424222941198400000004376278564256951715_" class="st2" d="M57.2,44.9c-0.4,0.4-1.1,0.4-1.6,0
			s-0.4-1.1,0-1.6"/>
		<path id="Ellipse_1095_00000159459671455943121000000010942641007323812524_" class="st2" d="M57.2,44.9c0.4-0.4,0.4-1.1,0-1.6
			s-1.1-0.4-1.6,0"/>
	</g>
	<g id="Group_11_00000031190152668320963330000012727041660911809694_">
		<path id="Ellipse_1094_00000059995335528757814100000015181878098650503099_" class="st2" d="M68,55.7c-0.4,0.4-1.1,0.4-1.6,0
			c-0.4-0.4-0.4-1.1,0-1.6"/>
		<path id="Ellipse_1095_00000166653411602969039150000006413736992967786904_" class="st2" d="M68,55.7c0.4-0.4,0.4-1.1,0-1.6
			c-0.4-0.4-1.1-0.4-1.6,0"/>
	</g>
	<g id="Group_11_00000000911821647763608290000011490832886947848867_">
		<path id="Ellipse_1094_00000047040488554117258960000001792723246838036354_" class="st2" d="M46.4,34.2c-0.4,0.4-1.1,0.4-1.6,0
			s-0.4-1.1,0-1.6"/>
		<path id="Ellipse_1095_00000083783528363412673570000009848827379169755306_" class="st2" d="M46.4,34.2c0.4-0.4,0.4-1.1,0-1.6
			c-0.4-0.4-1.1-0.4-1.6,0"/>
	</g>
</g>
</svg>
