<?xml version="1.0" encoding="utf-8"?>
<!-- Generator: Adobe Illustrator 28.0.0, SVG Export Plug-In . SVG Version: 6.00 Build 0)  -->
<svg version="1.1" id="레이어_1" xmlns="http://www.w3.org/2000/svg" xmlns:xlink="http://www.w3.org/1999/xlink" x="0px"
	 y="0px" viewBox="0 0 91.3 109.9" style="enable-background:new 0 0 91.3 109.9;" xml:space="preserve">
<style type="text/css">
	.st0{fill:url(#SVGID_1_);}
	.st1{fill:none;stroke:#FFFFFF;stroke-width:4;stroke-miterlimit:10;}
	.st2{fill:none;stroke:#FFFFFF;stroke-width:4;stroke-linecap:round;stroke-miterlimit:10;}
</style>
<linearGradient id="SVGID_1_" gradientUnits="userSpaceOnUse" x1="5.9374" y1="54.7366" x2="68.2996" y2="54.7366">
	<stop  offset="0.4" style="stop-color:#FFFFFF;stop-opacity:0"/>
	<stop  offset="1" style="stop-color:#CCCCCC"/>
</linearGradient>
<path class="st0" d="M37.1,32.1c-17.2,0-31.2,14-31.2,31.2c0,7.8,6.3,14.2,14.2,14.2h17h17c7.8,0,14.2-6.3,14.2-14.2
	C68.3,46,54.3,32.1,37.1,32.1z"/>
<path class="st1" d="M71.2,77.4h-51C12.3,77.4,6,71.1,6,63.2v0c0-17.2,14-31.2,31.2-31.2h17c17.2,0,31.2,14,31.2,31.2v0
	C85.3,71.1,79,77.4,71.2,77.4z"/>
<path class="st1" d="M37.1,32.1c-17.2,0-31.2,14-31.2,31.2c0,7.8,6.3,14.2,14.2,14.2h17h17c7.8,0,14.2-6.3,14.2-14.2
	C68.3,46,54.3,32.1,37.1,32.1z"/>
<path class="st2" d="M27.8,77.4c-6.5-5.5-10.3-15.5-6.8-23.7c2.9-6.8,10.8-11.3,18.2-10.5c5.1,0.6,10.5,3.7,13,9
	c0.5,1.1,3.8,8.3-0.5,13c-3.2,3.4-9.1,4-12.8,1.3c-2.2-1.6-3-3.8-3.3-4.9"/>
</svg>
